<svg xmlns="http://www.w3.org/2000/svg" width="3cm" height="3cm" viewBox="0 0 85.04 85.04"><defs><style>.a{fill:#33ace3;}.b{fill:#fff;}</style></defs><title>greece</title><rect class="a" x="0.77" y="0.77" width="83.5" height="83.5"/><path class="b" d="M0.77,0H85V85H0V0H0.77ZM83.5,1.54h-82v82h82v-82Z"/><path class="b" d="M12.84,42.84H10.53V42.32h7v0.52h-2a4.18,4.18,0,0,1-1.67,3.74,6.16,6.16,0,0,1-3.5,1.13A5.56,5.56,0,0,1,6,45.58a7.56,7.56,0,0,1-1.78-5,7.45,7.45,0,0,1,1.82-5,5.73,5.73,0,0,1,4.53-2.12,4.93,4.93,0,0,1,2.68.81,1.29,1.29,0,0,0,.54.24,0.9,0.9,0,0,0,.65-0.58h0.45L15,37.64H14.51Q13.66,34,10.52,34a3.32,3.32,0,0,0-2.39.74,3.19,3.19,0,0,0-.92,1.86A23.29,23.29,0,0,0,7,39.79a31.36,31.36,0,0,0,.25,5,3,3,0,0,0,1,1.83,2.94,2.94,0,0,0,1.89.61,3.37,3.37,0,0,0,1.59-.37,1.62,1.62,0,0,0,.87-1.09,9.79,9.79,0,0,0,.18-2.17V42.84Zm6.49,4H17.18V47.4h6.7V46.88H21.74V40.41H23c1.35,0,2.22.29,2.61,0.88a3.23,3.23,0,0,1,.57,1.78l0,1.73a3,3,0,0,0,.67,1.83,2.75,2.75,0,0,0,2.36.94,5.2,5.2,0,0,0,1.71-.3v-0.5a3.11,3.11,0,0,1-.85.14,1.06,1.06,0,0,1-.86-0.37,3,3,0,0,1-.31-1.69,4.18,4.18,0,0,0-1.09-3.27,5.85,5.85,0,0,0-2.8-1.3v0A7.53,7.53,0,0,0,28.35,39a2.55,2.55,0,0,0,1-2.09,2.73,2.73,0,0,0-.68-1.83A3.17,3.17,0,0,0,27,34a9.41,9.41,0,0,0-2.4-.26H17.18V34.3h2.14V46.88ZM21.74,34.3H24a6.36,6.36,0,0,1,1.4.13,1.55,1.55,0,0,1,.91.68,3.15,3.15,0,0,1,.37,1.74A4.52,4.52,0,0,1,26.35,39a1.56,1.56,0,0,1-1,.82,7.68,7.68,0,0,1-1.8.16H21.74V34.3ZM36,34.3v5.84h1.23a4.2,4.2,0,0,0,1.1-.12,1.5,1.5,0,0,0,.81-0.69,3.57,3.57,0,0,0,.41-1.75h0.53v5.77H39.55a3.29,3.29,0,0,0-.64-2.17,2.38,2.38,0,0,0-1.69-.52H36v6.22h2.77a4.33,4.33,0,0,0,3.27-1,5,5,0,0,0,1.08-3h0.52L43.5,47.4H31.43V46.88h2.16V34.3H31.43V33.78H43l0.23,3.64H42.72A3.93,3.93,0,0,0,41.63,35a4.1,4.1,0,0,0-2.74-.73H36Zm13.21,0v5.84h1.23a4.2,4.2,0,0,0,1.1-.12,1.5,1.5,0,0,0,.81-0.69,3.57,3.57,0,0,0,.41-1.75h0.53v5.77H52.75a3.3,3.3,0,0,0-.63-2.17,2.39,2.39,0,0,0-1.69-.52H49.2v6.22H52a4.33,4.33,0,0,0,3.26-1,5,5,0,0,0,1.08-3h0.52L56.71,47.4H44.63V46.88h2.16V34.3H44.63V33.78H56.21l0.23,3.64H55.92A3.93,3.93,0,0,0,54.84,35a4.1,4.1,0,0,0-2.74-.73H49.2Zm18.52-.67v4H67.29Q66.58,34,63.61,34a2.5,2.5,0,0,0-2.33,1.25q-0.73,1.25-.73,5.26A21,21,0,0,0,60.87,45,2.8,2.8,0,0,0,62,46.68a3,3,0,0,0,1.71.51A3.46,3.46,0,0,0,66,46.28a6,6,0,0,0,1.66-2.95H68.1l-0.16,4.15H67.52a2.64,2.64,0,0,0-.73-1.1,4.78,4.78,0,0,1-7.23-.71,7.34,7.34,0,0,1-1.77-5,7.74,7.74,0,0,1,1.74-5.12,5.16,5.16,0,0,1,4-2.1,4.42,4.42,0,0,1,3.12,1.27,8,8,0,0,0,.6-1.11h0.44Zm5.72,0.67v5.84h1.23a4.22,4.22,0,0,0,1.1-.12,1.5,1.5,0,0,0,.81-0.69A3.57,3.57,0,0,0,77,37.58h0.53v5.77H77a3.28,3.28,0,0,0-.63-2.17,2.38,2.38,0,0,0-1.69-.52H73.45v6.22h2.77a4.33,4.33,0,0,0,3.27-1,5,5,0,0,0,1.08-3h0.52L81,47.4H68.88V46.88H71V34.3H68.88V33.78H80.45l0.23,3.64H80.17A3.92,3.92,0,0,0,79.08,35a4.09,4.09,0,0,0-2.74-.73H73.45Z"/></svg>